<svg xmlns="http://www.w3.org/2000/svg" xmlns:xlink="http://www.w3.org/1999/xlink" width="500" zoomAndPan="magnify" viewBox="0 0 375 374.999991" height="500" preserveAspectRatio="xMidYMid meet" version="1.2"><defs/><g id="d4fbd5cc74"><g style="fill:#222222;fill-opacity:1;"><g transform="translate(114.331874, 203.009737)"><path style="stroke:none" d="M 0.296875 -29.453125 L 0.46875 -32.34375 L 9.296875 -41.21875 L 13.46875 -41.28125 L 6.234375 -33.859375 L 14 -41.09375 L 16.46875 -41.15625 L 16.46875 -39.515625 L 7 -29.984375 L 16.28125 -38.984375 L 16.9375 -34.859375 L 16.46875 -34.390625 L 15.703125 -29.8125 L 4.765625 -18.40625 L 4.109375 -23.109375 L 4.703125 -23.640625 L 4.171875 -27.21875 L 4.703125 -27.6875 L 4.703125 -29.34375 L 2.296875 -29.875 L 1.875 -29.40625 Z M 4.40625 -8.875 L 16.578125 -20.8125 L 16.9375 -16.578125 L 16.578125 -16.234375 L 16.109375 -11.34375 L 4.59375 -0.296875 L 4.296875 -4.34375 L 4.875 -4.875 Z M 8.8125 0.59375 L 21.21875 -11.640625 L 25.984375 -12.046875 L 23.109375 -9.171875 L 25.75 -11.703125 L 29.921875 -11.40625 L 18.28125 0 L 14.234375 -0.359375 L 13.8125 0.0625 Z M 18.34375 0.296875 L 30.34375 -11.640625 L 34.15625 -12.34375 L 25.171875 -2.828125 L 35.109375 -11.578125 L 38.515625 -11.765625 L 27.34375 -0.171875 L 23.109375 -0.59375 L 22.578125 0 Z M 39.5625 -11.8125 L 42.921875 -11.765625 L 43.046875 -10.578125 L 42.796875 -10.34375 L 43.15625 -6.578125 L 36.625 -0.125 L 32.109375 -0.234375 L 31.75 0.125 L 28.28125 -0.703125 Z M 5 -13.515625 L 14.9375 -23.640625 L 4.765625 -14.046875 L 5.46875 -17.9375 L 16.578125 -29.984375 L 16.515625 -25.109375 L 16.40625 -24.984375 L 15.9375 -21.578125 L 4.703125 -9.34375 Z M 5.46875 -0.0625 L 16.703125 -11.578125 L 21.578125 -12.109375 L 9.109375 0 Z M 0.296875 -36.390625 L 5.0625 -41.21875 L 8.9375 -41.75 L 0.171875 -32.28125 Z M 37.15625 0.125 L 42.984375 -6.0625 L 42.984375 -1.765625 L 40.921875 -0.0625 Z M 0.46875 -36.984375 L 0.296875 -41.328125 L 4.40625 -41.21875 Z M 42.921875 0 L 41.5625 0.0625 L 42.921875 -1.40625 Z M 42.921875 0 "/></g></g><g style="fill:#222222;fill-opacity:1;"><g transform="translate(153.008885, 203.009737)"><path style="stroke:none" d="M 10.578125 -0.0625 L 37.21875 -29.109375 L 8 -0.9375 L 4.9375 -2.640625 L 5.46875 -3.171875 L 3.296875 -4.34375 L 21.578125 -23.28125 L 30.75 -29.34375 L 28.109375 -28.921875 L 39.515625 -41.15625 L 40.8125 -41.09375 L 42.21875 -40.09375 L 13.703125 -11.28125 L 42.515625 -39.5625 L 46.09375 -37.6875 L 45.21875 -36.8125 L 46.75 -35.28125 L 48.09375 -36.453125 L 11.640625 0.0625 L 8.8125 0 Z M 9.296875 -29.40625 L 14.578125 -34.578125 L 8.8125 -29.28125 L 5.46875 -28.921875 L 15.171875 -39.390625 L 4.46875 -29.40625 L 2.9375 -29.453125 L 3.46875 -31.6875 L 10.296875 -39.390625 L 3.109375 -32.34375 L 3.0625 -36.75 L 7.53125 -41.328125 L 11.765625 -41.09375 L 11.875 -41.21875 L 16.515625 -40.921875 L 16.8125 -41.21875 L 21.046875 -40.921875 L 21.40625 -41.28125 L 25.578125 -41.28125 L 13.765625 -29.40625 Z M 47.265625 -27.109375 L 35.390625 -19.109375 L 37.09375 -20.75 L 33.453125 -17.515625 L 25.34375 -11.703125 L 27.453125 -12.234375 L 16.234375 0 L 13.046875 0 L 46.859375 -34.6875 L 47.265625 -29.8125 L 46.921875 -29.515625 Z M 30.15625 -0.125 L 39.984375 -9.875 L 29.875 -0.125 L 25.921875 0.359375 L 37.578125 -11.703125 L 41.984375 -11.8125 L 42.046875 -11.8125 L 46.515625 -12.234375 L 34.34375 -0.0625 Z M 18.578125 -29.046875 L 30.15625 -41.046875 L 35.046875 -41.859375 L 26.21875 -32.875 L 34.859375 -40.984375 L 38.390625 -41.453125 L 27.21875 -29.40625 L 22.875 -29.453125 L 22.8125 -29.453125 Z M 46.796875 -11.8125 L 47.09375 -7.703125 L 46.625 -7.234375 L 46.75 -2.9375 L 43.796875 -0.171875 L 39.28125 -0.40625 L 39.046875 -0.171875 L 34.75 -0.171875 L 46.6875 -11.765625 Z M 17.171875 -0.640625 L 28.21875 -11.765625 L 32.515625 -12.46875 L 20.703125 -0.171875 Z M 14.234375 -28.921875 L 25.6875 -41.328125 L 29.28125 -41.328125 L 18.109375 -29.34375 Z M 21.34375 0.40625 L 32.875 -11.765625 L 36.75 -12.234375 L 25.171875 -0.125 Z M 3 -5.9375 L 2.703125 -8.9375 L 7.875 -13.703125 L 19.40625 -22.28125 L 3.34375 -5.46875 Z M 3.0625 -36.859375 L 3.0625 -41.328125 L 7 -41.046875 Z M 46.6875 -0.0625 L 43.984375 0.125 L 46.75 -2.640625 Z M 2.875 -9.578125 L 2.875 -10.875 L 6.578125 -13.109375 Z M 2.875 -9.578125 "/></g></g><g style="fill:#222222;fill-opacity:1;"><g transform="translate(197.857934, 203.009737)"><path style="stroke:none" d="M 5.34375 -22.40625 L 16.40625 -34.515625 L 16.640625 -29.921875 L 16.40625 -29.6875 L 17 -26.34375 L 10.53125 -19.75 L 16.28125 -25.171875 L 17.046875 -20.640625 L 16.40625 -20.046875 L 16.640625 -16.9375 L 5.234375 -5.34375 L 4.703125 -5.875 L 5.109375 -9.40625 L 9.40625 -13.765625 L 4.53125 -9.34375 L 4.640625 -13.8125 L 4 -18.40625 L 4.9375 -19.28125 Z M 28.453125 -0.765625 L 32.578125 -4.875 L 27.453125 -0.125 L 23.6875 -0.0625 L 34.984375 -11.765625 L 35.28125 -11.765625 L 35.34375 -11.53125 L 47.09375 -23.984375 L 48.328125 -19.40625 L 46.921875 -18.046875 L 46.625 -15.75 L 31.75 0.171875 Z M 35.34375 -25.875 L 46.921875 -37.578125 L 47.03125 -32.921875 L 47.09375 -32.984375 L 47.15625 -29.046875 L 35.109375 -16.9375 L 35.625 -20.75 L 46.625 -32.453125 L 35.15625 -21.75 Z M 10.578125 -0.703125 L 21.28125 -11.765625 L 25.28125 -11.34375 L 25.640625 -11.703125 L 29.578125 -12.171875 L 18.046875 -0.125 L 14.171875 0.40625 L 20.578125 -6.34375 L 13.515625 0 L 10.578125 0 Z M 35.625 -35.28125 L 41.515625 -41.09375 L 45.6875 -40.8125 L 46.03125 -41.15625 L 47.03125 -41.28125 L 46.625 -37.453125 L 35.28125 -26.046875 L 34.75 -30.28125 L 36.921875 -32.34375 L 35.34375 -30.921875 Z M 37.453125 -0.640625 L 40.5625 -3.765625 L 36.515625 0 L 32.625 0.875 L 46.921875 -14.8125 L 47.328125 -9.9375 L 46.859375 -9.53125 L 47.21875 -5.9375 L 40.984375 -0.125 Z M 14.046875 -41.15625 L 16.46875 -41.15625 L 16.703125 -39.515625 L 4.703125 -27.640625 L 4.703125 -29.40625 L 2.296875 -29.109375 Z M 18.640625 0.359375 L 30.15625 -11.578125 L 35.109375 -12.46875 L 22.875 -0.0625 Z M 0.359375 -29.40625 L 0.640625 -32.28125 L 9.578125 -41.15625 L 13.46875 -41.921875 L 1.875 -29.40625 Z M 4.9375 -26.75 L 16.40625 -39.15625 L 15.8125 -35.046875 L 4.640625 -22.984375 Z M 35.75 -16 L 46.921875 -28.453125 L 46.453125 -24.34375 L 35.390625 -12.53125 Z M 8.34375 -3.40625 L 16.8125 -11.875 L 20.40625 -12.046875 L 9.8125 -0.703125 Z M 6.109375 -4.703125 L 16.40625 -16.28125 L 16.75 -12.53125 L 7.578125 -3.0625 Z M 0 -36.6875 L 4.765625 -41.21875 L 9.0625 -41.390625 L 0.296875 -32.21875 Z M 35.28125 -39.515625 L 36.75 -41.046875 L 41.09375 -41.453125 L 35.28125 -35.515625 Z M 0.125 -36.859375 L 0.359375 -41.28125 L 4.53125 -41.046875 Z M 35.28125 -39.921875 L 35.28125 -41.15625 L 36.515625 -41.15625 Z M 35.28125 -39.921875 "/></g></g><g style="fill:#222222;fill-opacity:1;"><g transform="translate(243.000891, 203.009737)"><path style="stroke:none" d="M 2.109375 -4.109375 L 8.296875 -10.171875 L 2.9375 -5.109375 L 3.640625 -9 L 14.8125 -21.046875 L 14.765625 -16.234375 L 14.703125 -16.171875 L 15 -12.234375 L 14.515625 -11.765625 L 14.703125 -8.0625 L 6.9375 -0.171875 L 3.40625 -0.640625 L 12.875 -10.171875 L 2.875 -0.40625 Z M 12.109375 -41.15625 L 14.703125 -41.15625 L 14 -39.984375 L 5.109375 -30.453125 L 14.8125 -39.09375 L 14.171875 -35.109375 L 2.875 -23.171875 L 2.359375 -27.921875 L 2.703125 -28.28125 L 2.40625 -32.046875 L 3.53125 -33.109375 L 2.703125 -32.34375 L 3.109375 -36.390625 L 7.640625 -41.21875 L 11.9375 -40.984375 Z M 2.59375 -18.234375 L 14.8125 -30.21875 L 15.171875 -25.984375 L 3.0625 -14.234375 Z M 2.296875 -22.109375 L 14.765625 -34.515625 L 14.515625 -29.984375 L 2.828125 -18.8125 Z M 2.875 -13.8125 L 14.765625 -25.40625 L 14.109375 -21.8125 L 2.9375 -9.40625 Z M 7.578125 0.234375 L 14.703125 -7.171875 L 14.765625 -3.0625 L 11.578125 -0.125 Z M 2.875 -36.984375 L 2.9375 -41.15625 L 7.234375 -41.15625 Z M 14.765625 -0.0625 L 12 0.0625 L 14.703125 -2.59375 Z M 14.765625 -0.0625 "/></g></g></g></svg>